<?xml version="1.0" encoding="UTF-8" standalone="no"?>
<svg
   xmlns:dc="http://purl.org/dc/elements/1.1/"
   xmlns:cc="http://creativecommons.org/ns#"
   xmlns:rdf="http://www.w3.org/1999/02/22-rdf-syntax-ns#"
   xmlns:svg="http://www.w3.org/2000/svg"
   xmlns="http://www.w3.org/2000/svg"
   xmlns:sodipodi="http://sodipodi.sourceforge.net/DTD/sodipodi-0.dtd"
   xmlns:inkscape="http://www.inkscape.org/namespaces/inkscape"
   sodipodi:docname="loop_inverse.svg"
   inkscape:version="1.0 (4035a4fb49, 2020-05-01)"
   id="svg8"
   version="1.1"
   viewBox="0 0 240 120"
   height="120mm"
   width="240mm">
  <defs
     id="defs2" />
  <sodipodi:namedview
     inkscape:document-rotation="0"
     inkscape:window-maximized="1"
     inkscape:window-y="0"
     inkscape:window-x="1920"
     inkscape:window-height="1172"
     inkscape:window-width="1920"
     inkscape:guide-bbox="true"
     showguides="true"
     width="200mm"
     showborder="true"
     showgrid="false"
     inkscape:current-layer="layer1"
     inkscape:document-units="mm"
     inkscape:cy="182.72055"
     inkscape:cx="284.27627"
     inkscape:zoom="0.99437388"
     inkscape:pageshadow="2"
     inkscape:pageopacity="0.0"
     borderopacity="1.0"
     bordercolor="#666666"
     pagecolor="#ffffff"
     id="base">
    <inkscape:grid
       dotted="false"
       empspacing="4"
       spacingy="10"
       spacingx="10"
       units="mm"
       id="grid815"
       type="xygrid" />
  </sodipodi:namedview>
  <metadata
     id="metadata5">
    <rdf:RDF>
      <cc:Work
         rdf:about="">
        <dc:format>image/svg+xml</dc:format>
        <dc:type
           rdf:resource="http://purl.org/dc/dcmitype/StillImage" />
        <dc:title />
      </cc:Work>
    </rdf:RDF>
  </metadata>
  <g
     transform="translate(0,-177)"
     id="layer1"
     inkscape:groupmode="layer"
     inkscape:label="Layer 1">
    <circle
       r="1.2849289"
       cy="266.20651"
       cx="108.25098"
       id="path831"
       style="fill:black;stroke:none;stroke-width:0.421322;stroke-linecap:round;stroke-linejoin:round;stop-color:#000000;fill-opacity:1;marker-end:none;marker-start:none;stroke-opacity:1" />
    <text
       transform="scale(0.80173364,1.247297)"
       x="137.03067"
       y="221.84669"
       style="font-size:11.1455px;font-family:monospace;-inkscape-font-specification:'monospace, Normal';fill:#000000;fill-opacity:1;stroke:none;stroke-width:1.11455"
       xml:space="preserve"
       id="text843"><tspan
         style="stroke-width:1.11455"
         y="221.84669"
         x="137.03067"
         sodipodi:role="line"
         id="tspan841">$x$</tspan></text>
    <path
       id="path855"
       d="m 109.72345,265.93237 c 0.32398,-0.59005 0.60095,-1.20847 0.97194,-1.77014 0.92596,-1.40187 2.24279,-2.49347 3.25936,-3.79969 0.99315,-1.27613 2.01141,-3.59004 2.66834,-5.06813 0.30777,-0.69248 0.59006,-1.4 0.79824,-2.12864 0.14619,-0.51169 -0.1462,-1.0848 0,-1.59648 0.63388,-2.21859 2.35803,-5.40551 3.45904,-7.45025 0.21025,-0.39046 0.56321,-0.68826 0.79824,-1.06432 0.83711,-1.33937 1.29154,-2.91792 2.12865,-4.25729 0.23503,-0.37606 0.59963,-0.66781 0.79824,-1.06432 0.49419,-0.71182 0.43058,-1.65467 0.81013,-2.41377 1.07297,-2.14597 2.07516,-4.38077 2.92688,-6.65201 0.24671,-0.65789 0.35828,-1.96001 0.53216,-2.39472 0.0932,-0.23292 0.43899,-0.29924 0.53216,-0.53216 0.4571,-1.14276 0.0429,-3.40725 0.26608,-4.52337 0.43877,-2.19385 0.22488,-4.39339 0,-6.64223 -0.19634,-1.9634 0.53117,-4.2596 -0.26608,-6.11985 -0.74346,-1.73474 -3.91058,-7.67342 -5.32901,-8.52448 -0.56425,-0.33855 -1.31309,-0.38613 -1.86257,-0.79824 -1.2185,-0.91388 -2.31459,-1.95554 -3.72512,-2.6608 -1.03558,-0.51779 -0.66902,-0.0206 -1.86256,-0.53216 -1.35208,-0.57946 -2.72702,-1.42645 -4.25729,-1.59648 -0.79335,-0.0881 -1.60264,0.099 -2.39472,0 -3.68312,-0.46039 -7.31132,-0.79824 -11.062537,-0.79824 -0.70752,0 -1.702565,-0.13711 -2.388095,0 -1.275638,0.25512 -2.192819,1.37853 -3.192965,2.12864 -0.576837,0.43263 -0.06963,0.78395 -0.79824,1.3304 -1.031955,0.77397 -1.032777,1.14009 -1.855872,2.37473 -0.279675,0.41951 -0.851268,0.9043 -1.064321,1.3304 -0.501222,1.00245 -1.230225,6.141 -0.798243,7.43695 0.125434,0.3763 0.406731,0.68803 0.532162,1.06432 0.360011,1.08004 0,2.84138 0,3.99121 0,3.13807 0.08604,-1.04049 -0.266081,2.12864 -0.08815,0.79336 0.09901,1.60265 0,2.39472 -0.334187,2.67351 -0.656839,7.37575 -0.266081,10.11106 0.255717,1.79 0.295106,0.38217 0.798243,2.39472 0.245658,0.98263 -0.319342,2.23494 0,3.19296 0.954013,2.86204 0.167862,-0.19643 0.79824,1.06433 0.374142,0.74828 0.08751,1.14827 0.266081,1.86256 0.222776,0.8911 1.129887,1.92431 1.330401,2.92688 0.173072,0.86536 0.234929,1.50303 0.532162,2.39472 0.531577,1.59474 -0.06808,-0.66831 0.79824,1.06432 0.44354,0.88709 0.26389,2.25785 0.79824,3.19297 0.220022,0.38504 0.618133,0.65907 0.798243,1.06432 0.431175,0.97015 0.505761,2.43537 0.79824,3.45904 0.335835,1.17543 0.962329,2.35719 1.327089,3.44245 0.141285,0.42036 0.750742,0.48466 1.064321,0.79824 0.542221,0.54222 1.019008,1.28509 1.596482,1.86256 0.816241,0.81624 1.800671,1.53459 2.660801,2.39473 0.33141,0.33141 1.16361,1.36426 1.3304,1.86256 0.31738,0.94818 -1.03872,-1.11507 0.26277,1.0577 0.45316,0.75651 1.32752,1.41525 1.86256,2.12864 0.51,0.68 0.64799,1.97581 1.21231,2.70083 0.17652,0.2268 0.48027,0 0.99182,0"
       style="fill:none;stroke:#000000;stroke-width:0.264583px;stroke-linecap:butt;stroke-linejoin:miter;stroke-opacity:1" />
    <path
       id="path857"
       d="m 107.27526,259.85442 c -0.36877,1.82231 -0.26608,3.67465 -0.26608,5.51983 0,0.3691 0.26623,0.76012 0.24614,0.77174 -0.24379,0.14096 -3.77158,-0.24557 -3.87415,-0.26608 -0.92182,-0.18437 -1.9197,-0.83541 -2.65411,-1.32706 -0.12408,-0.0831 -3.004678,-0.53216 -1.855871,-0.53216"
       style="fill:none;stroke:#000000;stroke-width:0.264583px;stroke-linecap:butt;stroke-linejoin:miter;stroke-opacity:1" />
    <path
       id="path863"
       d="m 108.04193,266.7002 c -1.47061,1.53239 -3.63071,1.34808 -5.6594,1.34808 -0.93337,0 -1.99758,0.13131 -2.916753,0 -2.465186,-0.35218 -5.528159,-1.81342 -7.457784,-3.46405 -2.082186,-1.78113 0.555392,0.28445 -1.601483,-1.86507 -2.368502,-2.36041 -0.855951,0.36365 -3.540765,-3.80468 -0.396045,-0.61488 -0.205076,-1.47447 -0.532162,-2.12864 -0.198324,-0.39665 -0.683337,-0.636 -0.79824,-1.06432 -0.165074,-0.61534 0.05416,-1.27649 0,-1.91127 -0.140033,-1.64106 -0.664107,-3.23225 -0.829358,-4.87096 -0.132551,-1.31442 0.08953,-2.6452 0,-3.96325 -0.05415,-0.79708 -0.243022,-1.58109 -0.298497,-2.37808 -0.472276,-6.78499 -0.62075,-14.08145 -0.279916,-20.87962 0.364223,-7.2647 0.298754,1.82258 0.298754,-3.3567 0,-3.10811 0.358976,-6.03757 0.01429,-9.13972 -0.165489,-1.4894 0.165488,-3.03397 0,-4.52337 -0.167722,-1.50949 -0.610093,-3.01818 -0.79824,-4.52337 -0.08194,-0.65551 0.313417,-4.62836 0.79824,-5.27479 1.343114,-1.79082 3.006338,-3.27078 4.566044,-4.83462 0.229698,-0.23031 0.286395,-0.60885 0.539567,-0.81307 0.218303,-0.1761 0.573863,-0.0978 0.79824,-0.26608 0.15866,-0.119 0.15607,-0.36715 0.266081,-0.53217 0.518771,-0.77815 1.559716,-1.26247 2.394723,-1.59648 1.519155,-0.60766 0.0316,0.0241 1.862563,-0.26608 2.552245,-0.40446 5.591926,-1.67681 8.277196,-1.18234 0.55704,0.10258 1.05346,0.43947 1.61058,0.54156 1.28333,0.23515 2.74376,-0.31549 4.00569,0 1.10431,0.27607 2.05789,1.14122 3.19297,1.3304 1.04817,0.1747 1.49719,-0.20722 2.62092,0.26608 0.70752,0.298 1.28179,0.87331 2.00255,1.13772 1.65167,0.60591 3.18622,0.2002 4.71701,0.81252 0.83291,0.33316 1.58877,0.92742 2.39473,1.3304 5.61827,2.80913 8.14756,4.43641 12.05507,9.65251 0.57416,0.76644 1.21398,1.48542 1.88991,2.16381 0.31301,0.31414 0.82929,0.42218 1.06432,0.79824 0.23969,0.3835 0.0824,0.91713 0.26608,1.3304 0.65372,1.47086 0.71777,0.55682 1.06432,1.59648 1.01403,3.04207 -0.10039,6.53277 -0.3313,9.60449 -0.0885,1.17807 0,2.36278 0,3.54417 0,2.78225 -0.15866,-0.10247 0.26609,1.59649 0.10328,0.41313 0.16064,3.92601 0,4.24729 -0.0561,0.11219 -0.2354,0.14447 -0.26609,0.26608 -0.44917,1.78028 0.16629,4.01493 0,5.84404 -0.0488,0.53729 -0.21239,1.05966 -0.26608,1.59649 -0.11362,1.13619 0.16136,2.32951 0,3.45904 -0.0397,0.27765 -0.2351,0.51948 -0.26608,0.79824 -0.002,0.0182 0.002,3.20647 0,3.21205 -0.19965,0.54502 -0.78972,0.86135 -1.08946,1.35841 -0.7013,1.16296 -1.35559,2.78816 -1.89283,4.04172 -0.82356,1.92163 -1.10471,4.13374 -2.39472,5.85376 -0.22831,0.30441 -2.90365,2.77808 -3.17491,2.91372 -0.60021,0.3001 -0.98419,-0.0729 -1.58973,0.52881 -0.0621,0.0617 0.0619,0.20082 0,0.26275 -0.276,0.27599 -4.28683,3.66515 -4.51336,3.72178 -1.15419,0.28855 -2.37217,1.1873 -3.7185,1.86256 -0.44903,0.22522 -1.04697,0.61209 -1.58303,0.79154 -0.16082,0.0538 -0.39286,-0.1238 -0.50877,0 -0.51601,0.55108 0.76902,-0.0297 -0.25465,0.51743 -0.6265,0.33484 -1.70946,0.47601 -2.23732,1.00702 -0.13883,0.13966 -0.12372,0.38976 -0.26297,0.529 -0.21344,0.21341 -2.01226,0.15378 -2.38816,0.26608 -0.50031,0.14945 -0.7957,0.68078 -1.2327,0.96659 -0.46277,0.30266 -1.94191,0.9943 -2.40408,0.99127 -0.098,-5.3e-4 -0.0998,-0.20636 -0.19709,-0.21812"
       style="fill:none;stroke:#000000;stroke-width:0.264583px;stroke-linecap:butt;stroke-linejoin:miter;stroke-opacity:1" />
    <path
       id="path869"
       d="m 113.43909,259.28588 c -0.0887,0.58427 -0.15639,1.17213 -0.26608,1.75283 -0.19328,1.02317 -0.63667,2.33634 -1.06432,3.1863 -0.2864,0.56921 0.0164,1.51749 -0.26609,2.09814 -0.0909,0.18689 -0.91535,0.47019 -0.51176,0.88481 0.09,0.0925 5.81691,0 6.50663,0 0.37912,0 2.82583,-0.26608 2.3015,-0.26608"
       style="fill:none;stroke:#000000;stroke-width:0.264583px;stroke-linecap:butt;stroke-linejoin:miter;stroke-opacity:1" />
    <text
       transform="scale(0.75242159,1.3290421)"
       x="125.62532"
       y="185.64825"
       style="font-size:4.45196px;font-family:monospace;-inkscape-font-specification:'monospace, Normal';fill:#000000;fill-opacity:1;stroke:none;stroke-width:0.445196"
       xml:space="preserve"
       id="text873"><tspan
         style="stroke-width:0.445196"
         y="185.64825"
         x="125.62532"
         sodipodi:role="line"
         id="tspan871">$\gamma$</tspan></text>
    <text
       transform="scale(0.69856735,1.4315012)"
       x="93.08017"
       y="185.54398"
       style="font-size:4.13381px;font-family:monospace;-inkscape-font-specification:'monospace, Normal';fill:#000000;fill-opacity:1;stroke:none;stroke-width:0.413381"
       xml:space="preserve"
       id="text887"><tspan
         style="stroke-width:0.413381"
         y="185.54398"
         x="93.08017"
         sodipodi:role="line"
         id="tspan885">$\gamma^{-1}$</tspan></text>
  </g>
</svg>
